<mxfile host="drawio-plugin" modified="2021-05-19T13:47:27.049Z" agent="5.0 (Windows NT 6.2; Win64; x64) AppleWebKit/537.36 (KHTML, like Gecko) Chrome/87.0.4280.141 Safari/537.36" version="14.6.6" etag="-clVMxa7ZqbQUYc-QUMu" type="embed"><diagram id="q_dIu1DGw-QznyBC7UN6" name="Page-1"><mxGraphModel dx="493" dy="431" grid="1" gridSize="10" guides="1" tooltips="1" connect="1" arrows="1" fold="1" page="1" pageScale="1" pageWidth="850" pageHeight="1100" math="0" shadow="0"><root><mxCell id="0"/><mxCell id="1" parent="0"/><mxCell id="2" value="Subject" style="swimlane;fontStyle=1;align=center;verticalAlign=top;childLayout=stackLayout;horizontal=1;startSize=26;horizontalStack=0;resizeParent=1;resizeParentMax=0;resizeLast=0;collapsible=1;marginBottom=0;" vertex="1" parent="1"><mxGeometry x="40" y="40" width="160" height="90" as="geometry"/></mxCell><mxCell id="4" value="" style="line;strokeWidth=1;fillColor=none;align=left;verticalAlign=middle;spacingTop=-1;spacingLeft=3;spacingRight=3;rotatable=0;labelPosition=right;points=[];portConstraint=eastwest;" vertex="1" parent="2"><mxGeometry y="26" width="160" height="8" as="geometry"/></mxCell><mxCell id="5" value="+ request()" style="text;strokeColor=none;fillColor=none;align=left;verticalAlign=top;spacingLeft=4;spacingRight=4;overflow=hidden;rotatable=0;points=[[0,0.5],[1,0.5]];portConstraint=eastwest;" vertex="1" parent="2"><mxGeometry y="34" width="160" height="56" as="geometry"/></mxCell><mxCell id="6" value="Proxy" style="swimlane;fontStyle=1;align=center;verticalAlign=top;childLayout=stackLayout;horizontal=1;startSize=26;horizontalStack=0;resizeParent=1;resizeParentMax=0;resizeLast=0;collapsible=1;marginBottom=0;" vertex="1" parent="1"><mxGeometry x="310" y="40" width="160" height="90" as="geometry"/></mxCell><mxCell id="8" value="" style="line;strokeWidth=1;fillColor=none;align=left;verticalAlign=middle;spacingTop=-1;spacingLeft=3;spacingRight=3;rotatable=0;labelPosition=right;points=[];portConstraint=eastwest;" vertex="1" parent="6"><mxGeometry y="26" width="160" height="8" as="geometry"/></mxCell><mxCell id="9" value="+ request()&#10;+ check_access()&#10;+ log_access()" style="text;strokeColor=none;fillColor=none;align=left;verticalAlign=top;spacingLeft=4;spacingRight=4;overflow=hidden;rotatable=0;points=[[0,0.5],[1,0.5]];portConstraint=eastwest;" vertex="1" parent="6"><mxGeometry y="34" width="160" height="56" as="geometry"/></mxCell><mxCell id="10" value="RealSubject" style="swimlane;fontStyle=1;align=center;verticalAlign=top;childLayout=stackLayout;horizontal=1;startSize=26;horizontalStack=0;resizeParent=1;resizeParentMax=0;resizeLast=0;collapsible=1;marginBottom=0;" vertex="1" parent="1"><mxGeometry x="40" y="180" width="160" height="60" as="geometry"/></mxCell><mxCell id="11" value="" style="line;strokeWidth=1;fillColor=none;align=left;verticalAlign=middle;spacingTop=-1;spacingLeft=3;spacingRight=3;rotatable=0;labelPosition=right;points=[];portConstraint=eastwest;" vertex="1" parent="10"><mxGeometry y="26" width="160" height="8" as="geometry"/></mxCell><mxCell id="12" value="+ request()" style="text;strokeColor=none;fillColor=none;align=left;verticalAlign=top;spacingLeft=4;spacingRight=4;overflow=hidden;rotatable=0;points=[[0,0.5],[1,0.5]];portConstraint=eastwest;" vertex="1" parent="10"><mxGeometry y="34" width="160" height="26" as="geometry"/></mxCell><mxCell id="13" value="«interface»&lt;br&gt;&lt;b&gt;Client&lt;/b&gt;" style="html=1;" vertex="1" parent="1"><mxGeometry x="310" y="180" width="160" height="60" as="geometry"/></mxCell><mxCell id="14" value="Extends" style="endArrow=block;endSize=16;endFill=0;html=1;exitX=0;exitY=0.5;exitDx=0;exitDy=0;" edge="1" parent="1" source="9" target="5"><mxGeometry width="160" relative="1" as="geometry"><mxPoint x="220" y="160" as="sourcePoint"/><mxPoint x="380" y="160" as="targetPoint"/></mxGeometry></mxCell><mxCell id="15" value="Extends" style="endArrow=block;endSize=16;endFill=0;html=1;exitX=0.5;exitY=0;exitDx=0;exitDy=0;entryX=0.5;entryY=1;entryDx=0;entryDy=0;entryPerimeter=0;" edge="1" parent="1" source="10" target="5"><mxGeometry width="160" relative="1" as="geometry"><mxPoint x="130" y="160" as="sourcePoint"/><mxPoint x="290" y="160" as="targetPoint"/></mxGeometry></mxCell><mxCell id="16" value="" style="endArrow=open;endFill=1;endSize=12;html=1;exitX=0;exitY=0.5;exitDx=0;exitDy=0;entryX=1;entryY=1;entryDx=0;entryDy=0;entryPerimeter=0;" edge="1" parent="1" source="13" target="5"><mxGeometry width="160" relative="1" as="geometry"><mxPoint x="260" y="340" as="sourcePoint"/><mxPoint x="420" y="340" as="targetPoint"/></mxGeometry></mxCell></root></mxGraphModel></diagram></mxfile>